<?xml version="1.0" standalone="no"?>
<!DOCTYPE svg PUBLIC "-//W3C//DTD SVG 20010904//EN"
 "http://www.w3.org/TR/2001/REC-SVG-20010904/DTD/svg10.dtd">
<svg version="1.0" xmlns="http://www.w3.org/2000/svg"
 width="193.000000pt" height="193.000000pt" viewBox="0 0 193.000000 193.000000"
 preserveAspectRatio="xMidYMid meet">
<metadata>
Created by potrace 1.11, written by Peter Selinger 2001-2013
</metadata>
<g transform="translate(0.000000,193.000000) scale(0.100000,-0.100000)"
fill="#000000" stroke="none">
<path d="M735 1800 c-6 -9 -2 -78 8 -122 1 -7 -16 -18 -38 -25 -82 -28 -204
-95 -268 -149 -161 -132 -258 -326 -273 -544 l-6 -85 38 36 c96 90 192 119
284 84 76 -28 80 -28 80 -12 0 18 71 84 108 99 50 21 216 17 238 -5 4 -4 41
-133 89 -312 15 -55 40 -145 55 -200 15 -55 39 -145 54 -200 51 -190 56 -203
76 -208 12 -3 21 1 24 12 3 9 -17 99 -45 201 -28 102 -63 232 -79 290 -16 58
-40 148 -55 200 -14 52 -35 129 -46 170 l-21 75 40 36 c66 58 159 77 276 56
l54 -10 54 45 c98 84 167 107 263 89 27 -5 52 -8 54 -6 8 8 -90 133 -146 186
-181 173 -424 242 -679 194 -35 -6 -67 -9 -71 -6 -5 3 -14 24 -22 46 -19 54
-37 80 -46 65z"/>
<path d="M836 163 c-6 -14 -5 -15 5 -6 7 7 10 15 7 18 -3 3 -9 -2 -12 -12z"/>
<path d="M950 171 c0 -6 4 -13 10 -16 6 -3 7 1 4 9 -7 18 -14 21 -14 7z"/>
</g>
</svg>
